{
    "asset" : {
        "generator" : "Khronos glTF Blender I/O v3.4.49",
        "version" : "2.0"
    },
    "scene" : 0,
    "scenes" : [
        {
            "name" : "Scene",
            "nodes" : [
                0
            ]
        }
    ],
    "nodes" : [
        {
            "mesh" : 0,
            "name" : "Arche"
        }
    ],
    "materials" : [
        {
            "doubleSided" : true,
            "name" : "Material.005",
            "pbrMetallicRoughness" : {
                "baseColorFactor" : [
                    0,
                    0.3166818618774414,
                    0.3931117057800293,
                    1
                ],
                "metallicFactor" : 0,
                "roughnessFactor" : 0.5
            }
        },
        {
            "doubleSided" : true,
            "name" : "Material.013",
            "pbrMetallicRoughness" : {
                "metallicFactor" : 0,
                "roughnessFactor" : 0.5
            }
        }
    ],
    "meshes" : [
        {
            "name" : "Cube.038",
            "primitives" : [
                {
                    "attributes" : {
                        "POSITION" : 0,
                        "TEXCOORD_0" : 1,
                        "NORMAL" : 2
                    },
                    "indices" : 3,
                    "material" : 0
                },
                {
                    "attributes" : {
                        "POSITION" : 4,
                        "TEXCOORD_0" : 5,
                        "NORMAL" : 6
                    },
                    "indices" : 7,
                    "material" : 1
                }
            ]
        }
    ],
    "accessors" : [
        {
            "bufferView" : 0,
            "componentType" : 5126,
            "count" : 612,
            "max" : [
                13.26542854309082,
                6.393288612365723,
                24.63552474975586
            ],
            "min" : [
                -6.73457145690918,
                -0.10671138763427734,
                23.94707679748535
            ],
            "type" : "VEC3"
        },
        {
            "bufferView" : 1,
            "componentType" : 5126,
            "count" : 612,
            "type" : "VEC2"
        },
        {
            "bufferView" : 2,
            "componentType" : 5126,
            "count" : 612,
            "type" : "VEC3"
        },
        {
            "bufferView" : 3,
            "componentType" : 5123,
            "count" : 660,
            "type" : "SCALAR"
        },
        {
            "bufferView" : 4,
            "componentType" : 5126,
            "count" : 15921,
            "max" : [
                9.767646789550781,
                6.3650007247924805,
                24.7470760345459
            ],
            "min" : [
                -3.327084541320801,
                4.435314178466797,
                24.58820343017578
            ],
            "type" : "VEC3"
        },
        {
            "bufferView" : 5,
            "componentType" : 5126,
            "count" : 15921,
            "type" : "VEC2"
        },
        {
            "bufferView" : 6,
            "componentType" : 5126,
            "count" : 15921,
            "type" : "VEC3"
        },
        {
            "bufferView" : 7,
            "componentType" : 5123,
            "count" : 16764,
            "type" : "SCALAR"
        }
    ],
    "bufferViews" : [
        {
            "buffer" : 0,
            "byteLength" : 7344,
            "byteOffset" : 0,
            "target" : 34962
        },
        {
            "buffer" : 0,
            "byteLength" : 4896,
            "byteOffset" : 7344,
            "target" : 34962
        },
        {
            "buffer" : 0,
            "byteLength" : 7344,
            "byteOffset" : 12240,
            "target" : 34962
        },
        {
            "buffer" : 0,
            "byteLength" : 1320,
            "byteOffset" : 19584,
            "target" : 34963
        },
        {
            "buffer" : 0,
            "byteLength" : 191052,
            "byteOffset" : 20904,
            "target" : 34962
        },
        {
            "buffer" : 0,
            "byteLength" : 127368,
            "byteOffset" : 211956,
            "target" : 34962
        },
        {
            "buffer" : 0,
            "byteLength" : 191052,
            "byteOffset" : 339324,
            "target" : 34962
        },
        {
            "buffer" : 0,
            "byteLength" : 33528,
            "byteOffset" : 530376,
            "target" : 34963
        }
    ],
    "buffers" : [
        {
            "byteLength" : 563904,
            "uri" : "data:application/octet-stream;base64,"
        }
    ]
}
