{
    "asset" : {
        "generator" : "Khronos glTF Blender I/O v3.4.49",
        "version" : "2.0"
    },
    "extensionsUsed" : [
        "KHR_materials_emissive_strength"
    ],
    "scene" : 0,
    "scenes" : [
        {
            "name" : "Scene",
            "nodes" : [
                0
            ]
        }
    ],
    "nodes" : [
        {
            "mesh" : 0,
            "name" : "lampadaires"
        }
    ],
    "materials" : [
        {
            "doubleSided" : true,
            "name" : "lampadaire",
            "pbrMetallicRoughness" : {
                "baseColorFactor" : [
                    0.23954981565475464,
                    0.23954981565475464,
                    0.23954981565475464,
                    1
                ],
                "metallicFactor" : 0.421875,
                "roughnessFactor" : 0.34375
            }
        },
        {
            "doubleSided" : true,
            "emissiveFactor" : [
                1,
                0.9386397056505061,
                0.5741214548070828
            ],
            "extensions" : {
                "KHR_materials_emissive_strength" : {
                    "emissiveStrength" : 1.6824029684066772
                }
            },
            "name" : "Material.010",
            "pbrMetallicRoughness" : {
                "baseColorFactor" : [
                    0,
                    0,
                    0,
                    1
                ]
            }
        }
    ],
    "meshes" : [
        {
            "name" : "Circle.016",
            "primitives" : [
                {
                    "attributes" : {
                        "POSITION" : 0,
                        "TEXCOORD_0" : 1,
                        "NORMAL" : 2
                    },
                    "indices" : 3,
                    "material" : 0
                },
                {
                    "attributes" : {
                        "POSITION" : 4,
                        "TEXCOORD_0" : 5,
                        "NORMAL" : 6
                    },
                    "indices" : 7,
                    "material" : 1
                }
            ]
        }
    ],
    "accessors" : [
        {
            "bufferView" : 0,
            "componentType" : 5126,
            "count" : 2757,
            "max" : [
                12.21859359741211,
                3.5222411155700684,
                -16.418176651000977
            ],
            "min" : [
                -9.405884742736816,
                -0.021857500076293945,
                -27.458864212036133
            ],
            "type" : "VEC3"
        },
        {
            "bufferView" : 1,
            "componentType" : 5126,
            "count" : 2757,
            "type" : "VEC2"
        },
        {
            "bufferView" : 2,
            "componentType" : 5126,
            "count" : 2757,
            "type" : "VEC3"
        },
        {
            "bufferView" : 3,
            "componentType" : 5123,
            "count" : 3312,
            "type" : "SCALAR"
        },
        {
            "bufferView" : 4,
            "componentType" : 5126,
            "count" : 232,
            "max" : [
                12.12185001373291,
                3.244478464126587,
                -16.51018524169922
            ],
            "min" : [
                -9.309141159057617,
                2.8361213207244873,
                -27.36685562133789
            ],
            "type" : "VEC3"
        },
        {
            "bufferView" : 5,
            "componentType" : 5126,
            "count" : 232,
            "type" : "VEC2"
        },
        {
            "bufferView" : 6,
            "componentType" : 5126,
            "count" : 232,
            "type" : "VEC3"
        },
        {
            "bufferView" : 7,
            "componentType" : 5123,
            "count" : 240,
            "type" : "SCALAR"
        }
    ],
    "bufferViews" : [
        {
            "buffer" : 0,
            "byteLength" : 33084,
            "byteOffset" : 0,
            "target" : 34962
        },
        {
            "buffer" : 0,
            "byteLength" : 22056,
            "byteOffset" : 33084,
            "target" : 34962
        },
        {
            "buffer" : 0,
            "byteLength" : 33084,
            "byteOffset" : 55140,
            "target" : 34962
        },
        {
            "buffer" : 0,
            "byteLength" : 6624,
            "byteOffset" : 88224,
            "target" : 34963
        },
        {
            "buffer" : 0,
            "byteLength" : 2784,
            "byteOffset" : 94848,
            "target" : 34962
        },
        {
            "buffer" : 0,
            "byteLength" : 1856,
            "byteOffset" : 97632,
            "target" : 34962
        },
        {
            "buffer" : 0,
            "byteLength" : 2784,
            "byteOffset" : 99488,
            "target" : 34962
        },
        {
            "buffer" : 0,
            "byteLength" : 480,
            "byteOffset" : 102272,
            "target" : 34963
        }
    ],
    "buffers" : [
        {
            "byteLength" : 102752,
            "uri" : "data:application/octet-stream;base64,"
        }
    ]
}
