{
    "asset" : {
        "generator" : "Khronos glTF Blender I/O v3.4.49",
        "version" : "2.0"
    },
    "scene" : 0,
    "scenes" : [
        {
            "name" : "Scene",
            "nodes" : [
                0
            ]
        }
    ],
    "nodes" : [
        {
            "mesh" : 0,
            "name" : "colliderCyber2",
            "scale" : [
                1,
                1,
                0.8848499655723572
            ],
            "translation" : [
                -0.013964176177978516,
                0,
                -1.0892705917358398
            ]
        }
    ],
    "meshes" : [
        {
            "name" : "Cube.064",
            "primitives" : [
                {
                    "attributes" : {
                        "POSITION" : 0,
                        "TEXCOORD_0" : 1,
                        "NORMAL" : 2
                    },
                    "indices" : 3
                }
            ]
        }
    ],
    "accessors" : [
        {
            "bufferView" : 0,
            "componentType" : 5126,
            "count" : 24,
            "max" : [
                -26.075817108154297,
                1.9601221084594727,
                4.682468891143799
            ],
            "min" : [
                -26.770870208740234,
                -0.03987795114517212,
                -9.006635665893555
            ],
            "type" : "VEC3"
        },
        {
            "bufferView" : 1,
            "componentType" : 5126,
            "count" : 24,
            "type" : "VEC2"
        },
        {
            "bufferView" : 2,
            "componentType" : 5126,
            "count" : 24,
            "type" : "VEC3"
        },
        {
            "bufferView" : 3,
            "componentType" : 5123,
            "count" : 36,
            "type" : "SCALAR"
        }
    ],
    "bufferViews" : [
        {
            "buffer" : 0,
            "byteLength" : 288,
            "byteOffset" : 0,
            "target" : 34962
        },
        {
            "buffer" : 0,
            "byteLength" : 192,
            "byteOffset" : 288,
            "target" : 34962
        },
        {
            "buffer" : 0,
            "byteLength" : 288,
            "byteOffset" : 480,
            "target" : 34962
        },
        {
            "buffer" : 0,
            "byteLength" : 72,
            "byteOffset" : 768,
            "target" : 34963
        }
    ],
    "buffers" : [
        {
            "byteLength" : 840,
            "uri" : "data:application/octet-stream;base64,"
        }
    ]
}
